{
	"asset":
	{
		"version": "2.0",
		"generator": "Unreal Engine 5.6.0"
	},
	"scene": 0,
	"accessors": [
		{
			"bufferView": 0,
			"count": 12012,
			"type": "SCALAR",
			"componentType": 5123
		},
		{
			"bufferView": 1,
			"count": 2363,
			"type": "VEC3",
			"componentType": 5126,
			"min": [ -0.0661874935, -0.037707366, -0.0919727311 ],
			"max": [ 0.0661874935, 0.124296874, 0.10092327 ]
		},
		{
			"bufferView": 2,
			"count": 2363,
			"type": "VEC3",
			"componentType": 5126
		},
		{
			"bufferView": 3,
			"count": 2363,
			"type": "VEC4",
			"componentType": 5126
		},
		{
			"bufferView": 4,
			"count": 2363,
			"type": "VEC2",
			"componentType": 5126
		},
		{
			"bufferView": 5,
			"count": 2363,
			"type": "VEC2",
			"componentType": 5126
		}
	],
	"buffers": [
		{
			"uri": "skull.bin",
			"byteLength": 156352
		}
	],
	"bufferViews": [
		{
			"buffer": 0,
			"byteLength": 24024,
			"target": 34963
		},
		{
			"buffer": 0,
			"byteLength": 28356,
			"byteOffset": 24024,
			"target": 34962
		},
		{
			"buffer": 0,
			"byteLength": 28356,
			"byteOffset": 52380,
			"target": 34962
		},
		{
			"buffer": 0,
			"byteLength": 37808,
			"byteOffset": 80736,
			"target": 34962
		},
		{
			"buffer": 0,
			"byteLength": 18904,
			"byteOffset": 118544,
			"target": 34962
		},
		{
			"buffer": 0,
			"byteLength": 18904,
			"byteOffset": 137448,
			"target": 34962
		}
	],
	"images": [
		{
			"uri": "MI_Standard_Top_BaseColor.png"
		},
		{
			"uri": "MI_Standard_Top_MetallicRoughness.png"
		},
		{
			"uri": "MI_Standard_Top_Normal.png"
		},
		{
			"uri": "MI_Standard_Top_Occlusion.png"
		}
	],
	"materials": [
		{
			"name": "MI_Standard_Top",
			"pbrMetallicRoughness":
			{
				"baseColorTexture":
				{
					"index": 0
				},
				"metallicRoughnessTexture":
				{
					"index": 1
				}
			},
			"normalTexture":
			{
				"index": 2
			},
			"occlusionTexture":
			{
				"index": 3
			}
		}
	],
	"meshes": [
		{
			"name": "SM_Skeleton",
			"primitives": [
				{
					"attributes":
					{
						"POSITION": 1,
						"NORMAL": 2,
						"TANGENT": 3,
						"TEXCOORD_0": 4,
						"TEXCOORD_1": 5
					},
					"indices": 0,
					"material": 0
				}
			]
		}
	],
	"nodes": [
		{
			"mesh": 0
		}
	],
	"samplers": [
		{
			"minFilter": 9987,
			"magFilter": 9729
		}
	],
	"scenes": [
		{
			"nodes": [ 0 ]
		}
	],
	"textures": [
		{
			"name": "MI_Standard_Top_BaseColor",
			"sampler": 0,
			"source": 0
		},
		{
			"name": "MI_Standard_Top_MetallicRoughness",
			"sampler": 0,
			"source": 1
		},
		{
			"name": "MI_Standard_Top_Normal",
			"sampler": 0,
			"source": 2
		},
		{
			"name": "MI_Standard_Top_Occlusion",
			"sampler": 0,
			"source": 3
		}
	]
}